# xmcd
#
# Track frame offsets: 
#        150
#        13384
#        25935
#        38722
#        52666
#        74760
#        87608
#        101373
#        114587
#        142253
#        159547
#        173311
#
# Disc length: 2495 seconds
#
# Revision: 3
# Processed by: cddbd v1.5.1PL2 Copyright (c) Steve Scherf et al.
# Submitted via: ExactAudioCopy v0.95b3
#
DISCID=9e09bd0c
DTITLE=Various Artist - Summertime Blues Disc 1
DYEAR=2001
DGENRE=Blues
TTITLE0=Billie Holiday - Summertime
TTITLE1=Ray Charles - Rockin' Chair Blues
TTITLE2=Bessie Smith - I'm Wild About That Thing
TTITLE3=Ella Fitzgerald - My Heart Belongs To Daddy
TTITLE4=Big Bill Broonzy - In The Evening When The Sun Goes Down
TTITLE5=Blind Lemmon Jefferson - Dry Southern Blues
TTITLE6=Sidney Bechet - Weary Blues
TTITLE7=Sonny Boy Williamson - Thinking My Blues Away
TTITLE8=Joe Liggins - Boom-Chick-A-Boogie
TTITLE9=Johnny Otis - Barrel House Blues
TTITLE10=Roosevelt Sykes - Third Degree Blues
TTITLE11=Charles Brown - Let The Sunshine In My Life
EXTD=YEAR: 2001 ID3G: 0
EXTT0=
EXTT1=
EXTT2=
EXTT3=
EXTT4=
EXTT5=
EXTT6=
EXTT7=
EXTT8=
EXTT9=
EXTT10=
EXTT11=
PLAYORDER=
